# xmcd
# Copyright (C) 1995-1998 Ti Kan
#
# Track frame offsets:
#       150
#       15700
#       34462
#       51142
#       68682
#       89555
#       105042
#       128020
#       148020
#       170037
#       190322
#       205657
#
# Disc length: 2934 seconds
#
# Revision: 0
# Processed by: cddbd v1.5.2PL0 Copyright (c) Steve Scherf et al.
# Submitted via: CD-Import v1.0
#
DISCID=a40b740c
DTITLE=Loops - Get Nasty
DYEAR=2007
DGENRE=
TTITLE0=Come On Baby
TTITLE1=Get Nasty
TTITLE2=Just Wanna Love Ya
TTITLE3=Just Sex
TTITLE4=It Makes You Happy
TTITLE5=It's A New Day
TTITLE6=This Land Is Your Land
TTITLE7=Soul Rebel
TTITLE8=People Say
TTITLE9=Stand
TTITLE10=Perfect
TTITLE11=I Don't Care
EXTD=
EXTT0=
EXTT1=
EXTT2=
EXTT3=
EXTT4=
EXTT5=
EXTT6=
EXTT7=
EXTT8=
EXTT9=
EXTT10=
EXTT11=
PLAYORDER=
